
        <svg xmlns="http://www.w3.org/2000/svg" xmlns:xlink="http://www.w3.org/1999/xlink" version="1.1" width="3171.4285714285716" height="2254.663224521042" viewBox="0 0 3171.4285714285716 2254.663224521042">
			
			<g transform="scale(8.571428571428571) translate(10, 10)">
				<defs id="SvgjsDefs1048"/><g id="SvgjsG1049" featureKey="LwVBM5-0" transform="matrix(1.5551199920269727,0,0,1.5551199920269727,97.24306161028032,-11.112812425210496)" fill="#fff"><defs xmlns="http://www.w3.org/2000/svg"/><path xmlns="http://www.w3.org/2000/svg" d="m20.278,60.386H7.384v29.459h12.895v-29.459h0Zm45.583,18.138c-.11.407-.268.829-.481,1.267-1.971,4.049-6.583,2.601-9.759,1.605-.312-.098-.361-.114-.489-.154-1.685-.52-3.864-1.272-5.956-2.018-2.137-.761-4.145-1.5-5.484-1.992l-2.698-.992c-.62-.227-.938-.914-.711-1.535.227-.62.915-.938,1.535-.711l2.698.992c1.36.5,3.399,1.25,5.456,1.983,2.102.749,4.263,1.496,5.863,1.99l.498.154c2.376.746,5.826,1.828,6.896-.37,1.315-2.702-1.264-4.633-3.94-5.936-1.311-.638-2.617-1.124-3.626-1.5l-.206-.077c-3.207-1.196-6.253-2.383-9.315-3.575-3.541-1.379-7.104-2.767-11.017-4.205-4.224-1.071-6.557-.467-10.305.504-.683.177-1.409.365-2.143.546v20.796c1.951.005,3.844.037,5.402.221,2.586.306,5.027,1.343,7.455,2.376,1.364.58,2.724,1.158,4.071,1.581,10.927,3.426,28.921-2.704,42.023-7.168l1.73-.589.054-.017.049-.018c.767-.291,1.567-1.139,2.108-2.212.543-1.076.791-2.337.439-3.434-.014-.043-.033-.096-.057-.159-.406-1.071-1.122-1.759-1.999-2.1-1.027-.399-2.299-.363-3.604.06l-14.484,4.689h0Zm-43.187-16.486c.559-.14,1.064-.27,1.544-.395,4.138-1.072,6.708-1.738,11.542-.502.059.015.116.034.171.057,3.735,1.373,7.414,2.806,11.07,4.23,3.094,1.205,6.173,2.404,9.287,3.566l.206.077c1.087.405,2.494.928,3.842,1.584,2.539,1.236,4.982,2.949,5.58,5.342l13.7-4.435c1.816-.588,3.647-.615,5.195-.013,1.498.583,2.708,1.725,3.375,3.485.03.079.061.17.094.272.561,1.751.217,3.661-.579,5.24-.798,1.582-2.086,2.875-3.4,3.373-.04.015-.085.031-.136.048l-.041.015-1.73.589c-13.412,4.57-31.833,10.845-43.501,7.187-1.448-.454-2.87-1.059-4.296-1.665-2.266-.963-4.542-1.931-6.8-2.198-1.419-.168-3.235-.197-5.121-.202v3.352c0,.661-.536,1.198-1.198,1.198H6.186c-.661,0-1.198-.536-1.198-1.198v-31.854c0-.661.536-1.198,1.198-1.198h15.29c.661,0,1.198.536,1.198,1.198v2.849h0ZM62.388,11.638c1.229-.745,2.525-1.418,3.862-2.001,4.396-1.918,9.294-2.9,13.799-2.33,4.614.584,8.802,2.776,11.639,7.216.517.809.985,1.685,1.399,2.633,6.968,15.968-6.35,27.988-17.899,38.412-4.764,4.299-9.215,8.317-11.633,12.102-.258.405-.719.601-1.165.541-.446.06-.907-.137-1.165-.541-2.418-3.785-6.869-7.802-11.633-12.102-11.55-10.424-24.867-22.444-17.899-38.412.414-.948.882-1.825,1.399-2.633,2.836-4.439,7.025-6.631,11.639-7.216,4.505-.57,9.402.412,13.799,2.33,1.337.583,2.633,1.257,3.862,2.001h0Zm.512,2.482c.051-.024.1-.052.148-.083,1.297-.827,2.695-1.573,4.156-2.21,4.033-1.76,8.491-2.666,12.545-2.152,3.945.499,7.519,2.362,9.926,6.13.445.696.853,1.463,1.221,2.306,6.279,14.39-6.354,25.792-17.31,35.68-4.387,3.96-8.516,7.686-11.198,11.362-2.682-3.676-6.811-7.402-11.198-11.362-10.956-9.888-23.589-21.29-17.31-35.68.368-.843.776-1.61,1.221-2.306,2.407-3.768,5.981-5.631,9.926-6.13,4.054-.513,8.511.392,12.545,2.152,1.461.637,2.859,1.383,4.156,2.21.047.031.097.059.148.084l.019.009c.155.071.32.106.484.107h.019c.164-.001.328-.036.484-.107l.019-.009h0Zm-25.732,16.774h8.25c.451,0,.844-.249,1.048-.617l2.126-3.308,3.355,7.508c.269.602.975.872,1.577.604.206-.092.374-.236.494-.409l.002.002,2.479-3.559,2.824,8.08c.217.623.898.952,1.521.735.266-.093.478-.27.618-.491l7.959-12.602,4.524,8.455c.31.581,1.033.801,1.614.491.258-.138.445-.357.546-.609h.002s1.831-4.528,1.831-4.528l9.387-.045c.659-.003,1.191-.539,1.188-1.198-.003-.659-.539-1.191-1.198-1.188l-10.125.049c-.495-.025-.974.263-1.169.749l-1.175,2.905-4.262-7.967c-.094-.197-.243-.371-.441-.496-.558-.351-1.295-.184-1.647.374l-7.733,12.244-2.755-7.882c-.072-.259-.231-.496-.47-.662-.543-.377-1.288-.243-1.666.299l-2.607,3.743-3.368-7.539c-.088-.228-.247-.431-.469-.574-.556-.357-1.295-.195-1.652.36l-3.008,4.68h-7.599c-.661,0-1.198.536-1.198,1.198s.536,1.198,1.198,1.198Z" style="fill-rule: evenodd;"/></g><g id="SvgjsG1050" featureKey="YhTCwJ-0" transform="matrix(5.163765215453295,0,0,5.163765215453295,-9.088220574264469,122.84362020292524)" fill="#fff"><path d="M6.08 5.84 q2.24 0 3.46 0.91 t1.24 2.57 q0 1.22 -0.67 2.04 t-1.81 1.16 l0 0.04 q1.38 0.12 2.29 1.11 t0.91 2.37 q0 1.88 -1.42 2.91 t-4.04 1.05 l-4.28 0 l0 -14.16 l4.32 0 z M5.84 11.84 q1.54 0 2.34 -0.55 t0.8 -1.75 q0 -2.1 -2.96 -2.14 l-2.58 0 l0 4.44 l2.4 0 z M6.36 18.44 q1.52 0 2.43 -0.67 t0.91 -1.79 q0 -1.28 -0.9 -1.93 t-2.46 -0.65 l-2.9 0 l0 5.04 l2.92 0 z M18.54 10.4 q2.18 0 3.56 1.35 t1.44 3.57 q0 2.14 -1.4 3.51 t-3.6 1.41 q-2.2 0 -3.58 -1.39 t-1.42 -3.53 q0 -2.16 1.4 -3.53 t3.6 -1.39 z M15.219999999999999 15.32 q0 1.54 0.93 2.49 t2.39 0.99 q1.46 0 2.38 -0.97 t0.94 -2.51 q0 -1.52 -0.93 -2.5 t-2.41 -0.98 q-1.44 0 -2.36 0.97 t-0.94 2.51 z M30.42 10.4 q2.18 0 3.56 1.35 t1.44 3.57 q0 2.14 -1.4 3.51 t-3.6 1.41 q-2.2 0 -3.58 -1.39 t-1.42 -3.53 q0 -2.16 1.4 -3.53 t3.6 -1.39 z M27.1 15.32 q0 1.54 0.93 2.49 t2.39 0.99 q1.46 0 2.38 -0.97 t0.94 -2.51 q0 -1.52 -0.93 -2.5 t-2.41 -0.98 q-1.44 0 -2.36 0.97 t-0.94 2.51 z M40.7 10.4 q2.24 0.02 3.18 1.7 l-1.3 0.86 q-0.68 -1.12 -1.98 -1.12 q-0.78 0 -1.31 0.36 t-0.53 0.94 q0 0.94 2.34 1.36 q1.68 0.3 2.38 0.98 t0.7 1.82 q0 1.38 -1.02 2.16 t-2.72 0.78 q-1.32 0 -2.17 -0.42 t-1.47 -1.32 l1.24 -0.96 q0.58 0.7 1.14 0.98 t1.26 0.28 q0.9 0 1.48 -0.39 t0.58 -1.05 q0 -0.68 -0.61 -1.02 t-2.03 -0.62 q-1.4 -0.3 -2.03 -0.9 t-0.63 -1.66 q0 -1.18 0.97 -1.96 t2.53 -0.8 z M48.72 7.98 l0 2.66 l2.76 0 l0 1.32 l-2.76 0 l0 5 q0 1.12 0.36 1.48 t1.04 0.36 q0.78 0 1.38 -0.32 l0.06 1.42 q-0.8 0.34 -1.82 0.34 q-1.44 0 -2.01 -0.71 t-0.57 -2.33 l0 -5.24 l-2.04 0 l0 -1.32 l2.04 0 l0 -2.66 l1.56 0 z M59.85999999999999 5.84 l6.02 14.16 l-1.96 0 l-1.44 -3.48 l-7.08 0 l-1.46 3.48 l-1.9 0 l6.24 -14.16 l1.58 0 z M58.99999999999999 8 l-2.94 6.96 l5.78 0 l-2.8 -6.96 l-0.04 0 z M68.4 5.84 q0.46 0 0.8 0.33 t0.34 0.81 q0 0.5 -0.32 0.82 t-0.82 0.32 t-0.82 -0.32 t-0.32 -0.82 q0 -0.48 0.34 -0.81 t0.8 -0.33 z M69.18 10.64 l0 9.36 l-1.56 0 l0 -9.36 l1.56 0 z"/></g><g id="SvgjsG1051" featureKey="duLK5n-0" transform="matrix(0.40618564697144877,0,0,0.40618564697144877,34.87002052324275,234.8390922883855)" fill="#fff"><path d="M5.34 20 l0 -7.2 l-5.02 -7.04 l2.2 0 l3.74 5.22 l3.74 -5.22 l2.18 0 l-5.02 7.04 l0 7.2 l-1.82 0 z M32.74 5.32 c4.1 0 7.46 3.34 7.46 7.46 c0 4.1 -3.36 7.42 -7.46 7.42 s-7.44 -3.32 -7.44 -7.42 c0 -4.12 3.34 -7.46 7.44 -7.46 z M32.74 18.44 c3.12 0 5.64 -2.56 5.64 -5.66 c0 -3.12 -2.52 -5.7 -5.64 -5.7 s-5.64 2.58 -5.64 5.7 c0 3.1 2.52 5.66 5.64 5.66 z M64.06 5.76 l1.8 0 l0 9.02 c0 3 -2.44 5.42 -5.44 5.42 c-2.98 0 -5.42 -2.42 -5.42 -5.42 l0 -9.02 l1.78 0 l0 9.02 c0 2.02 1.64 3.68 3.64 3.68 c2.02 0 3.64 -1.66 3.64 -3.68 l0 -9.02 z M87.28 12.42 l5.5 7.58 l-2.06 0 l-5.44 -7.48 l-2.04 0 l0 7.48 l-1.72 0 l0 -14.24 l4.94 0 c0.9 0 1.74 0.36 2.38 1 s1 1.48 1 2.38 c0 1.58 -1.1 2.9 -2.56 3.28 z M83.24 7.48 l0 3.32 l3.22 0 c0.92 0 1.66 -0.74 1.66 -1.66 s-0.74 -1.66 -1.66 -1.66 l-3.22 0 z M124.8 20 l0 -14.24 l4.6 0 c4.04 0 7.32 3.2 7.32 7.12 s-3.28 7.12 -7.32 7.12 l-4.6 0 z M129.4 18.26 c3.06 0 5.54 -2.44 5.54 -5.38 s-2.48 -5.38 -5.54 -5.38 l-2.82 0 l0 10.76 l2.82 0 z M160.28000000000003 20 l-1.58 -4.14 l-5.82 0 l-1.58 4.14 l-1.92 0 l5.48 -14.24 l1.86 0 l5.5 14.24 l-1.94 0 z M158.00000000000003 14.1 l-2.2 -5.76 l-2.22 5.76 l4.42 0 z M177.38000000000002 20 l0 -14.24 l1.8 0 l0 14.24 l-1.8 0 z M196.04 20 l0 -14.24 l1.8 0 l0 12.5 l7.8 0 l0 1.74 l-9.6 0 z M222.38 20 l0 -7.2 l-5.02 -7.04 l2.2 0 l3.74 5.22 l3.74 -5.22 l2.18 0 l-5.02 7.04 l0 7.2 l-1.82 0 z M261.36 20 l0 -14.24 l4.6 0 c4.04 0 7.32 3.2 7.32 7.12 s-3.28 7.12 -7.32 7.12 l-4.6 0 z M265.96 18.26 c3.06 0 5.54 -2.44 5.54 -5.38 s-2.48 -5.38 -5.54 -5.38 l-2.82 0 l0 10.76 l2.82 0 z M295.24 5.32 c4.1 0 7.46 3.34 7.46 7.46 c0 4.1 -3.36 7.42 -7.46 7.42 s-7.44 -3.32 -7.44 -7.42 c0 -4.12 3.34 -7.46 7.44 -7.46 z M295.24 18.44 c3.12 0 5.64 -2.56 5.64 -5.66 c0 -3.12 -2.52 -5.7 -5.64 -5.7 s-5.64 2.58 -5.64 5.7 c0 3.1 2.52 5.66 5.64 5.66 z M322.64000000000004 20.14 c-0.48 0 -0.96 -0.06 -1.44 -0.16 c-1.48 -0.3 -2.94 -1.04 -4.24 -2.16 l1.18 -1.34 c1.06 0.92 2.24 1.54 3.42 1.78 c1 0.22 1.98 0.14 2.76 -0.22 c0.52 -0.24 1.42 -0.84 1.42 -2.06 c0 -1.5 -1.6 -2.04 -3.16 -2.34 c-0.14 -0.02 -2.38 -0.48 -3.28 -1 c-1.2 -0.72 -1.84 -1.8 -1.84 -3.12 c0 -0.74 0.24 -1.44 0.66 -2.06 c0.42 -0.56 1 -1.02 1.68 -1.34 c1 -0.48 2.18 -0.62 3.38 -0.42 c1.3 0.22 2.62 0.84 3.78 1.8 l-1.14 1.38 c-2.06 -1.7 -4.06 -1.74 -5.26 -1.18 c-0.82 0.38 -1.3 1.08 -1.3 1.8 c0 1.36 1.16 1.88 3 2.28 c0.76 0.18 2.34 0.44 3.28 0.98 c1.3 0.72 1.98 1.84 1.98 3.22 c0 0.82 -0.22 1.58 -0.68 2.24 c-0.42 0.6 -1.06 1.06 -1.78 1.42 c-0.76 0.38 -1.54 0.5 -2.42 0.5 z M343.12000000000006 20 l0 -14.24 l9 0 l0 1.72 l-7.2 0 l0 3.34 l6.28 0 l0 1.78 l-6.28 0 l0 5.64 l7.02 0 l0 1.76 l-8.82 0 z M391.40000000000003 5.32 c4.1 0 7.46 3.34 7.46 7.46 c0 4.1 -3.36 7.42 -7.46 7.42 s-7.44 -3.32 -7.44 -7.42 c0 -4.12 3.34 -7.46 7.44 -7.46 z M391.40000000000003 18.44 c3.12 0 5.64 -2.56 5.64 -5.66 c0 -3.12 -2.52 -5.7 -5.64 -5.7 s-5.64 2.58 -5.64 5.7 c0 3.1 2.52 5.66 5.64 5.66 z M413.80000000000007 20 l0 -14.24 l9 0 l0 1.74 l-7.2 0 l0 3.34 l3.96 0 l0 1.76 l-3.96 0 l0 7.4 l-1.8 0 z M454.9200000000001 20 l0 -14.24 l4.96 0 c0.9 0 1.76 0.36 2.4 1 s1 1.5 1 2.4 c0 1.88 -1.54 3.38 -3.4 3.38 l-3.18 0 l0 7.46 l-1.78 0 z M459.88000000000005 10.8 c0.88 0 1.6 -0.74 1.6 -1.64 s-0.72 -1.66 -1.6 -1.66 l-3.18 0 l0 3.3 l3.18 0 z M485.0400000000001 5.32 c4.1 0 7.46 3.34 7.46 7.46 c0 4.1 -3.36 7.42 -7.46 7.42 s-7.44 -3.32 -7.44 -7.42 c0 -4.12 3.34 -7.46 7.44 -7.46 z M485.0400000000001 18.44 c3.12 0 5.64 -2.56 5.64 -5.66 c0 -3.12 -2.52 -5.7 -5.64 -5.7 s-5.64 2.58 -5.64 5.7 c0 3.1 2.52 5.66 5.64 5.66 z M512.44 20.14 c-0.48 0 -0.96 -0.06 -1.44 -0.16 c-1.48 -0.3 -2.94 -1.04 -4.24 -2.16 l1.18 -1.34 c1.06 0.92 2.24 1.54 3.42 1.78 c1 0.22 1.98 0.14 2.76 -0.22 c0.52 -0.24 1.42 -0.84 1.42 -2.06 c0 -1.5 -1.6 -2.04 -3.16 -2.34 c-0.14 -0.02 -2.38 -0.48 -3.28 -1 c-1.2 -0.72 -1.84 -1.8 -1.84 -3.12 c0 -0.74 0.24 -1.44 0.66 -2.06 c0.42 -0.56 1 -1.02 1.68 -1.34 c1 -0.48 2.18 -0.62 3.38 -0.42 c1.3 0.22 2.62 0.84 3.78 1.8 l-1.14 1.38 c-2.06 -1.7 -4.06 -1.74 -5.26 -1.18 c-0.82 0.38 -1.3 1.08 -1.3 1.8 c0 1.36 1.16 1.88 3 2.28 c0.76 0.18 2.34 0.44 3.28 0.98 c1.3 0.72 1.98 1.84 1.98 3.22 c0 0.82 -0.22 1.58 -0.68 2.24 c-0.42 0.6 -1.06 1.06 -1.78 1.42 c-0.76 0.38 -1.54 0.5 -2.42 0.5 z M532.9200000000001 20 l0 -14.24 l1.8 0 l0 14.24 l-1.8 0 z M554.58 20 l0 -12.48 l-3.76 0 l0 -1.76 l9.32 0 l0 1.76 l-3.76 0 l0 12.48 l-1.8 0 z M576.24 20 l0 -14.24 l1.8 0 l0 14.24 l-1.8 0 z M593.6 5.76 l1.94 0 l4.48 11.66 l4.5 -11.66 l1.92 0 l-5.48 14.24 l-1.86 0 z M621.8000000000001 20 l0 -14.24 l1.8 0 l0 14.24 l-1.8 0 z M643.46 20 l0 -12.48 l-3.76 0 l0 -1.76 l9.32 0 l0 1.76 l-3.76 0 l0 12.48 l-1.8 0 z M668.2600000000001 20 l0 -7.2 l-5.02 -7.04 l2.2 0 l3.74 5.22 l3.74 -5.22 l2.18 0 l-5.02 7.04 l0 7.2 l-1.82 0 z M688.5400000000002 17.72 c0.62 0 1.12 0.52 1.12 1.14 s-0.5 1.14 -1.12 1.14 c-0.64 0 -1.14 -0.52 -1.14 -1.14 s0.5 -1.14 1.14 -1.14 z"/></g>
			</g>
		</svg>
	